<?xml version="1.0" encoding="iso-8859-1"?>
<!-- Generator: Adobe Illustrator 19.0.0, SVG Export Plug-In . SVG Version: 6.00 Build 0)  -->
<svg version="1.1" id="Capa_1" xmlns="http://www.w3.org/2000/svg" xmlns:xlink="http://www.w3.org/1999/xlink" x="0px" y="0px"
	 viewBox="0 0 512 512" xml:space="preserve" >
<path style="fill:#E3E6E8;" d="M433.878,192.41h-62.84c-10.365,0-18.767-8.402-18.767-18.767c0-10.365,8.402-18.767,18.767-18.767
	h62.84c22.38,0,40.588-18.207,40.588-40.588S456.259,73.7,433.878,73.7h-62.84c-10.365,0-18.767-8.402-18.767-18.767
	s8.402-18.767,18.767-18.767h62.84c43.076,0,78.122,35.046,78.122,78.122S476.954,192.41,433.878,192.41z"/>
<g>
	<path style="fill:#CCCED0;" d="M443.216,156.394c0.272-0.927,0.513-1.863,0.774-2.793c-3.234,0.832-6.622,1.275-10.112,1.275
		h-62.84c-10.365,0-18.767,8.402-18.767,18.767s8.402,18.767,18.767,18.767h58.086C434.771,181.209,439.457,169.223,443.216,156.394
		z"/>
	<path style="fill:#CCCED0;" d="M371.038,36.167c-10.365,0-18.767,8.402-18.767,18.767S360.674,73.7,371.038,73.7h62.84
		c7.81,0,15.107,2.222,21.304,6.06c0.68-12.036,0.978-23.989,1.123-35.706c0.02-1.552-0.037-3.094-0.129-4.628
		c-7.07-2.11-14.551-3.261-22.298-3.261h-62.84V36.167z"/>
</g>
<path style="fill:#E3E6E8;" d="M393.556,11.503H133.855c-17.714,0-32.065,14.455-31.845,32.167
	c0.919,74.118,8.278,140.743,67.16,187.663l94.537,22.424l94.537-22.424c58.883-46.92,66.241-113.544,67.16-187.663
	C425.621,25.958,411.27,11.503,393.556,11.503z"/>
<path style="fill:#CCCED0;" d="M210.376,231.334c-58.883-46.92-66.241-113.544-67.16-187.663
	c-0.219-17.712,14.131-32.167,31.845-32.167h-41.207c-17.714,0-32.065,14.455-31.845,32.167
	c0.919,74.118,8.278,140.743,67.16,187.663l94.537,22.424l20.604-4.887L210.376,231.334z"/>
<path style="fill:#E7627B;" d="M67.291,231.334C30.186,231.334,0,261.521,0,298.625c0,37.105,30.186,67.291,67.291,67.291
	l59.147,31.545l26.645-31.545V231.334H67.291z"/>
<path style="fill:#FAE7CA;" d="M454.626,323.019c-13.452,0-24.395-10.944-24.395-24.395s10.944-24.394,24.395-24.394v-20.472
	H102.979v89.733h351.647V323.019z"/>
<path style="fill:#EC8094;" d="M454.626,323.019H153.083c-13.452,0-24.395-10.944-24.395-24.395s10.944-24.394,24.395-24.394
	h301.543c11.846,0,21.448-9.602,21.448-21.448c0-11.846-9.602-21.448-21.448-21.448H153.083c-37.105,0-67.291,30.186-67.291,67.29
	c0,37.105,30.186,67.291,67.291,67.291l62.364,22.424h157.648l35.688-22.424h45.843c11.846,0,21.448-9.602,21.448-21.448
	C476.073,332.622,466.472,323.019,454.626,323.019z"/>
<path style="fill:#42AA7E;" d="M322.992,365.915h85.792c37.105,0,67.291,30.186,67.291,67.29c0,37.105-30.186,67.291-67.291,67.291
	h-85.792V365.915z"/>
<path style="fill:#FAE7CA;" d="M21.448,457.6c13.452,0,24.395-10.944,24.395-24.395s-10.944-24.394-24.395-24.394V388.34h351.647
	v89.733H21.448V457.6z"/>
<path style="fill:#51D09A;" d="M21.448,500.497h301.543c37.105,0,67.291-30.186,67.291-67.291c0-37.104-30.186-67.29-67.291-67.29
	H21.448C9.602,365.915,0,375.517,0,387.364s9.602,21.448,21.448,21.448h301.543c13.452,0,24.395,10.943,24.395,24.394
	S336.443,457.6,322.992,457.6H21.448C9.602,457.6,0,467.203,0,479.049C0,490.894,9.602,500.497,21.448,500.497z"/>
<g>
	<path style="fill:#3B484A;" d="M199.719,130.629c-4.267,0-7.726-3.459-7.726-7.726v-11.58c0-4.267,3.459-7.726,7.726-7.726
		c4.267,0,7.726,3.459,7.726,7.726v11.58C207.445,127.17,203.986,130.629,199.719,130.629z"/>
	<path style="fill:#3B484A;" d="M327.692,130.629c-4.267,0-7.726-3.459-7.726-7.726v-11.58c0-4.267,3.459-7.726,7.726-7.726
		c4.267,0,7.726,3.459,7.726,7.726v11.58C335.419,127.17,331.959,130.629,327.692,130.629z"/>
	<path style="fill:#3B484A;" d="M263.706,139.187c-9.792,0-18.985-4.092-25.221-11.227c-2.808-3.213-2.481-8.094,0.732-10.902
		c3.213-2.807,8.093-2.481,10.902,0.732c3.302,3.778,8.254,5.943,13.586,5.943c5.332,0,10.284-2.166,13.587-5.944
		c2.808-3.213,7.689-3.54,10.902-0.731c3.213,2.808,3.541,7.689,0.731,10.902C282.69,135.095,273.498,139.187,263.706,139.187z"/>
</g>
<g>
</g>
<g>
</g>
<g>
</g>
<g>
</g>
<g>
</g>
<g>
</g>
<g>
</g>
<g>
</g>
<g>
</g>
<g>
</g>
<g>
</g>
<g>
</g>
<g>
</g>
<g>
</g>
<g>
</g>
</svg>
